<?xml version="1.0" encoding="utf-8"?>
<!-- Generator: Adobe Illustrator 21.0.2, SVG Export Plug-In . SVG Version: 6.00 Build 0)  -->
<svg version="1.1" id="Capa_1" xmlns="http://www.w3.org/2000/svg" xmlns:xlink="http://www.w3.org/1999/xlink" x="0px" y="0px"
	 viewBox="0 0 819.3 232" style="enable-background:new 0 0 819.3 232;" xml:space="preserve">
<g>
	<g>
		<path d="M188.6,82l-5.5-10.1L177.7,82l-58,107l-2,3.6l3,2.8c1.6,1.5,3.1,3.2,4.7,4.7c1.7,1.5,3.6,2.8,5.3,4.2l10.8,8.2
			c7.2,5.4,14.5,10.9,21.9,16.1c-5.3-7.1-10.8-14.1-16.3-21l-8.4-10.3c-1.4-1.7-2.7-3.5-4.2-5.1c-0.6-0.6-1.2-1.2-1.9-1.8l50.6-93.3
			l50.6,93.4c-0.8,0.7-1.5,1.5-2.3,2.2c-1.8,1.6-3.6,3.2-5.1,5.2l-9.1,11.3c-3.1,3.7-6,7.6-9,11.4c-3,3.8-5.9,7.7-8.8,11.5
			c4.1-2.9,8.1-5.7,12-8.7c3.9-3,8-5.8,11.8-8.9l11.7-9c2-1.4,3.7-3.2,5.3-5c1.7-1.7,3.5-3.4,5.2-5.1l2.9-2.9l-1.9-3.5L188.6,82z"/>
		<path d="M242.5,150.5l0.8-0.5l-0.4-1.5c-1.5-5-3-10-4.7-14.9l-2.4-7.4c-0.7-2.5-2.4-4.6-3.5-6.9l-14.5-27.5l-29-54.9l-5.5-10.4
			l-5.5,10.4l-29,54.9l-14.5,27.5c-0.6,1.1-1.3,2.2-1.9,3.4c-0.6,1.2-0.9,2.4-1.3,3.6l-2.4,7.4c-1.7,4.9-3.2,9.9-4.7,14.9l-0.4,1.2
			l0.6,0.4l6.6,4.3l-3.6-5.3c3.1-4,6.3-8,9.4-12l4.8-6.3c0.8-1.1,1.7-2.1,2.3-3.2c0.6-1.1,1.1-2.3,1.7-3.5l14.5-27.5l23.5-44.5
			l23.5,44.5l14.5,27.5c1.3,2.2,2,4.8,3.7,6.8l4.8,6.3c3,4,6.1,7.9,9.2,11.9c-1.4,2.1-2.9,4.1-4.2,6.2
			C237.4,153.9,239.9,152.2,242.5,150.5z"/>
		<polygon points="279.5,186.8 294.3,186.9 309.5,159.5 264.7,172.9 		"/>
		<polygon points="72,186.4 86.8,186.3 101.6,172.4 56.8,159 		"/>
		<path d="M357.1,14.6l-41.4,12.7l-3.1,0.9l-0.9,2.9l-2,6.4l-1,3.2c-0.4,1-1,2-1,3.2l0.2-0.5c-0.4,3.3-1,6.7-1.3,10
			c-0.1,0.9-0.2,1.9-0.3,2.8l-9.1-25.6l-1-2.9l-3.2-0.8L183.2,0.4L181.6,0L180,0.4L73.2,26.8L70,27.6l-1,2.9l-9.1,25.6
			c-0.1-0.9-0.2-1.9-0.3-2.8c-0.4-3.4-0.9-6.7-1.3-10l0.2,0.5c0-1.1-0.6-2.1-1-3.2l-1-3.2l-2-6.4l-0.9-2.9l-3.1-0.9L9.2,14.6L0,11.7
			l1.2,8.9l5.9,43.6l0.5,4L12,69l19.1,3.5c0.8,0.3,1.5,0.8,2.4,1c1,0.3,2.2,0.3,3.2,0.5l6.5,0.9c3.2,0.4,6.4,0.7,9.6,1
			c-1.2,3.4-2.5,6.8-3.8,10.2c-0.9,2.3-1.4,4.7-2,7.1l-1.8,7.2l-3.5,14.4c-2.3,9.6-4.5,19.2-6.6,28.9c4.5-8.9,8.9-17.9,13.2-26.9
			l6.4-13.5l3.2-6.8c1-2.3,2.2-4.5,3-6.8c3.1-9.4,6.5-18.6,9.8-27.9l8.9-25l102.1-25.3L286.8,37l8.9,24.9c3.2,9.3,6.8,18.5,9.8,27.9
			c0.7,2.3,1.9,4.6,2.9,6.8l3.2,6.8l6.4,13.5l6.5,13.4l6.7,13.4l-3.2-14.5l-3.4-14.4l-3.5-14.4l-1.8-7.2c-0.6-2.4-1.1-4.8-2-7.1
			c-1.3-3.4-2.6-6.8-3.8-10.2c3.2-0.3,6.4-0.6,9.6-1l6.5-0.9c1.1-0.2,2.2-0.2,3.2-0.5c0.8-0.3,1.6-0.7,2.4-1l19.1-3.5l4.3-0.8l0.5-4
			l5.9-43.6l1.2-8.9L357.1,14.6z M53.5,73.9c-2.4-1.9-4.9-3.7-7.4-5.5l-5.3-3.7c-0.9-0.6-1.7-1.3-2.7-1.8c-1-0.4-2-0.6-3-1l-0.4-0.2
			l-0.7-0.1l-15.4-2.8l-4.2-30.7l29.1,9l1.1,3.5l1,3.2c0.3,1.1,0.4,2.2,1,3.2l0.2,0.5c2.2,2.7,4.3,5.4,6.5,8.1
			c1.5,1.8,3.1,3.6,4.7,5.4C56.6,65.3,55.1,69.6,53.5,73.9z M332.2,61.6l-0.7,0.1l-0.4,0.2c-1,0.4-2,0.6-3,1
			c-0.9,0.5-1.8,1.2-2.7,1.8l-5.3,3.7c-2.5,1.8-4.9,3.6-7.4,5.5c-1.5-4.3-3-8.6-4.6-12.9c1.6-1.8,3.2-3.6,4.7-5.4
			c2.3-2.7,4.3-5.4,6.5-8.1l0.2-0.5c0.7-1,0.7-2.1,1-3.2l1-3.2l1.1-3.5l29.1-9l-4.2,30.7L332.2,61.6z"/>
	</g>
	<g>
		<path d="M424.6,11.1l38.3,38.3l-38.3,38.3l-38.3-38.3L424.6,11.1z M452,102.5v11.2c0,3.1-0.1,6.5-0.2,10.2
			c-0.1,3.7-0.2,7.9-0.2,12.6c-0.3,4.4-0.5,8.4-0.6,12.2c-0.1,3.7-0.3,7.2-0.6,10.2c-0.8,9.8-2.7,19.1-5.8,27.8
			c-2.8,8.8-8.8,16.6-17.8,23.6c-1.5,1-3.1,2-4.6,2.9c-1.5,0.9-3.1,1.7-4.6,2.5c-1.3,0.5-2.7,1.2-4.3,1.9c-1.5,0.8-3.1,1.4-4.6,1.9
			l-3.1,1.2v-25.5h1.5c3.3-0.8,6.6-2.7,9.7-5.8c4.9-4.9,8-10.8,9.3-17.8c1-5.9,1.8-12.2,2.3-18.9h-30.9v-50.3H452z"/>
		<path d="M503.7,67.6h48v22.5h-48v16.6h48v22.8h-48v80.7h-24.8v-198h24.8V67.6z M558.9,12.2h25v198h-25V12.2z"/>
		<path d="M615.6,68.6c0,3.8,0.6,7.3,1.9,10.6c1.2,3.3,2.9,6.4,5.1,9.2l-17.1,18.1c-4.6-5.1-8.3-10.9-10.9-17.3
			c-2.6-6.4-4-13.3-4-20.5c0-7.9,1.5-15.3,4.5-22.3c3-6.9,7.1-13,12.3-18.1c5.2-5.1,11.3-9.2,18.2-12.1c6.9-3,14.4-4.5,22.3-4.5
			c6.9,0,13.4,1.1,19.4,3.3c6,2.2,11.5,5.3,16.5,9.3l-17.3,18.1c-2.6-1.8-5.5-3.3-8.5-4.3c-3.1-1.1-6.4-1.6-10-1.6
			c-4.5,0-8.7,0.8-12.6,2.5c-4,1.7-7.4,3.9-10.3,6.8c-2.9,2.9-5.2,6.3-6.8,10.3C616.4,60,615.6,64.2,615.6,68.6z M657.9,145.6
			c4,0,7.3-0.4,9.9-1.2c2.6-0.8,5.1-2.3,7.4-4.5l16.6,18.3c-6.1,5.4-12,8.9-17.8,10.3c-5.8,1.4-10.9,2.1-15.3,2.1h-0.7
			c-3.8,0-7.4-0.5-10.8-1.4c-3.4-0.9-6.6-1.9-9.8-3.1c-5.4-1.8-9.2-2.8-11.4-2.8c-2.1-0.1-3.8,0.5-5,1.9l-18.3-17.1
			c3.5-3.6,7.1-6.1,10.9-7.4c3.8-1.3,7.5-2,11.3-2s7.3,0.5,10.8,1.4c3.5,0.9,6.6,1.8,9.4,2.6c2.5,0.8,4.8,1.5,6.9,2.1
			C654.1,145.3,656.1,145.6,657.9,145.6z M657.9,185.2c4,0.2,7.3-0.2,9.9-1.1c2.6-0.9,5.1-2.4,7.4-4.6l16.6,18.6
			c-6.1,5.3-12.1,8.6-17.9,10c-5.9,1.4-10.9,2.1-15.2,2.1h-0.7c-3.8,0-7.4-0.5-10.8-1.4c-3.4-0.9-6.6-1.9-9.8-2.8
			c-5.6-1.8-9.4-2.8-11.5-3c-2.1-0.2-3.7,0.4-4.8,1.7l-18.3-17.1c3.5-3.6,7.1-6.1,10.9-7.4c3.8-1.3,7.5-2,11.3-2s7.3,0.4,10.8,1.2
			c3.5,0.8,6.6,1.7,9.4,2.7c2.5,0.8,4.8,1.5,6.9,2.1C654.1,184.9,656.1,185.2,657.9,185.2z M679.7,68.6c0-4.1-0.7-8-2.1-11.6
			c-1.4-3.6-3.3-6.8-5.8-9.7l17.3-17.8c4.8,5,8.5,10.8,11.3,17.5c2.7,6.7,4.1,13.9,4.1,21.7c0,7.8-1.5,15.1-4.5,22
			c-3,6.9-7,13-12.1,18.2c-5.1,5.2-11.1,9.3-18.1,12.3c-6.9,3-14.3,4.5-22,4.5c-7.3,0-14-1.2-20.3-3.7c-6.3-2.5-12-5.9-17.1-10.1
			L628,93.6c2.6,2.1,5.7,3.8,9,5.1c3.4,1.2,7,1.9,10.8,1.9c4.5,0,8.6-0.8,12.5-2.5c3.9-1.6,7.3-3.9,10.1-6.8
			c2.9-2.9,5.2-6.3,6.8-10.1C678.9,77.3,679.7,73.1,679.7,68.6z"/>
		<path d="M794.3,12.2h25v198h-25v-55c0-7.9-1.2-15.3-3.7-22.3c-2.5-6.9-5.3-13.1-8.4-18.4c-3.1-5.4-6.2-9.8-9.3-13.4
			c-3.1-3.5-5.2-5.9-6.3-7.1c-4-3.8-8.3-7.1-13-10c-4.7-2.9-9.4-5.9-14.2-9c-4.6-3.5-8.5-7.2-11.5-11.1c-3.1-4-5.6-7.9-7.5-11.9
			c-2-4-3.5-7.8-4.5-11.5s-1.7-7.1-2-10V12.2h25.2v14.4c0,7.4,1.4,13.3,4.3,17.7c2.9,4.4,6.6,8.2,11,11.5c4.5,3.3,9.3,6.5,14.6,9.5
			c5.3,3.1,10.3,6.9,15.1,11.5c1.3,1.2,2.8,2.7,4.5,4.6c1.6,1.9,3.5,4.1,5.7,6.6V12.2z M713.8,56c2.5,4.8,5.7,9.6,9.8,14.5
			c4,4.9,9.2,9.4,15.5,13.5v126.2h-25.2V56z"/>
	</g>
</g>
</svg>
